<svg xmlns="http://www.w3.org/2000/svg" viewBox="0 0 256 256" focusable="false" color="var(--token-18df821b-5f86-4b1d-b261-e59f8f5f5eb7, rgb(200, 255, 0))" style="user-select: none; width: 100%; height: 100%; display: inline-block; fill: var(--token-18df821b-5f86-4b1d-b261-e59f8f5f5eb7, rgb(200, 255, 0)); color: var(--token-18df821b-5f86-4b1d-b261-e59f8f5f5eb7, rgb(200, 255, 0)); flex-shrink: 0;"><g color="var(--token-18df821b-5f86-4b1d-b261-e59f8f5f5eb7, rgb(200, 255, 0))" weight="light"><path d="M212.24,83.76l-56-56A6,6,0,0,0,152,26H56A14,14,0,0,0,42,40v88a6,6,0,0,0,12,0V40a2,2,0,0,1,2-2h90V88a6,6,0,0,0,6,6h50V216a2,2,0,0,1-2,2H176a6,6,0,0,0,0,12h24a14,14,0,0,0,14-14V88A6,6,0,0,0,212.24,83.76ZM158,46.48,193.52,82H158ZM108,130a50,50,0,0,0-46.66,32H60a34,34,0,0,0,0,68h48a50,50,0,0,0,0-100Zm0,88H60a22,22,0,0,1-1.65-43.94c-.06.47-.1.93-.15,1.4a6,6,0,1,0,12,1.08A38.57,38.57,0,0,1,71.3,170a5.71,5.71,0,0,0,.24-.86A38,38,0,1,1,108,218Z"></path></g></svg>