<svg xmlns="http://www.w3.org/2000/svg" viewBox="0 0 256 256" focusable="false" color="var(--token-18df821b-5f86-4b1d-b261-e59f8f5f5eb7, rgb(200, 255, 0))" style="user-select: none; width: 100%; height: 100%; display: inline-block; fill: var(--token-18df821b-5f86-4b1d-b261-e59f8f5f5eb7, rgb(200, 255, 0)); color: var(--token-18df821b-5f86-4b1d-b261-e59f8f5f5eb7, rgb(200, 255, 0)); flex-shrink: 0;"><g color="var(--token-18df821b-5f86-4b1d-b261-e59f8f5f5eb7, rgb(200, 255, 0))" weight="light"><path d="M188.24,164.24a6,6,0,0,1-8.48,0L158,142.49V208a6,6,0,0,1-12,0V142.49l-21.76,21.75a6,6,0,0,1-8.48-8.48l32-32a6,6,0,0,1,8.48,0l32,32A6,6,0,0,1,188.24,164.24ZM160,42A86.1,86.1,0,0,0,82.43,90.88,62,62,0,1,0,72,214h40a6,6,0,0,0,0-12H72a50,50,0,0,1,0-100,50.68,50.68,0,0,1,5.91.36A85.54,85.54,0,0,0,74,128a6,6,0,0,0,12,0,74,74,0,1,1,103.6,67.85,6,6,0,0,0,4.8,11A86,86,0,0,0,160,42Z"></path></g></svg>