<svg xmlns="http://www.w3.org/2000/svg" viewBox="0 0 256 256" focusable="false" color="var(--token-18df821b-5f86-4b1d-b261-e59f8f5f5eb7, rgb(200, 255, 0))" style="user-select: none; width: 100%; height: 100%; display: inline-block; fill: var(--token-18df821b-5f86-4b1d-b261-e59f8f5f5eb7, rgb(200, 255, 0)); color: var(--token-18df821b-5f86-4b1d-b261-e59f8f5f5eb7, rgb(200, 255, 0)); flex-shrink: 0;"><g color="var(--token-18df821b-5f86-4b1d-b261-e59f8f5f5eb7, rgb(200, 255, 0))" weight="light"><path d="M208,82H174V56a46,46,0,0,0-92,0V82H48A14,14,0,0,0,34,96V208a14,14,0,0,0,14,14H208a14,14,0,0,0,14-14V96A14,14,0,0,0,208,82ZM94,56a34,34,0,0,1,68,0V82H94ZM210,208a2,2,0,0,1-2,2H48a2,2,0,0,1-2-2V96a2,2,0,0,1,2-2H208a2,2,0,0,1,2,2Zm-82-94a26,26,0,0,0-6,51.29V184a6,6,0,0,0,12,0V165.29A26,26,0,0,0,128,114Zm0,40a14,14,0,1,1,14-14A14,14,0,0,1,128,154Z"></path></g></svg>